<svg width="32" height="32" viewBox="0 0 32 32" fill="none" xmlns="http://www.w3.org/2000/svg">
<path d="M6.52763 17.639C7.0073 18.7119 7.54589 19.7581 8.13643 20.7736C7.96291 21.6097 7.85463 22.4058 7.8103 23.1481C7.63323 26.1134 8.46845 27.4483 9.18519 27.8642C9.81617 28.2304 11.1067 28.3203 13.0893 27.2199C13.7084 27.824 14.3376 28.3749 14.9704 28.8674C12.3651 30.5193 9.84897 31.0005 8 29.9276C5.11701 28.2545 4.67866 23.2802 6.52763 17.639Z" fill="#E48B53"/>
<path d="M9.12954 1.62698C10.7788 1.24049 12.8184 1.76841 14.9705 3.13259C14.3372 3.62561 13.7074 4.17585 13.0878 4.78062C11.5134 3.91192 10.3425 3.78215 9.64864 3.95188C9.02673 4.10401 8.30409 4.62842 7.95764 6.28774C7.59777 8.01132 7.7879 10.5134 8.72656 13.4466C9.65441 16.346 11.2036 19.3169 13.1292 21.8674C15.0662 24.4329 17.184 26.3091 19.0803 27.3093C21.0185 28.3316 22.203 28.1966 22.7736 27.8874C23.3221 27.59 24.0466 26.7225 24.1894 24.6087C24.3057 22.8859 23.9882 20.7103 23.1997 18.3266H14.8741C14.3996 17.549 13.9832 16.7516 13.5852 15.9404H24.8445L24.9072 16.0807C26.1446 19.2192 26.7232 22.2689 26.5543 24.7701C26.384 27.2911 25.4638 29.1151 23.935 29.9645L23.8988 29.9843C22.3604 30.8183 20.2999 30.6292 18.0324 29.4471L17.9788 29.419C15.726 28.2307 13.3959 26.1305 11.3388 23.4364L11.241 23.3077C9.16016 20.5517 7.48314 17.3419 6.47005 14.1761C5.45697 11.0104 5.16444 8.06555 5.63779 5.7984C6.11115 3.53126 7.32396 2.06844 9.08814 1.6369L9.12954 1.62698Z" fill="#E48B53"/>
<path d="M11.5613 8.27239C15.733 2.94357 20.8406 0.238976 24 2.07245C25.849 3.14545 26.6924 5.5763 26.5718 8.67008C25.831 8.36555 25.0418 8.09323 24.2117 7.8564C24.1686 5.5804 23.4458 4.50199 22.8148 4.1358C22.0981 3.71987 20.5303 3.66028 18.0639 5.29706C17.0445 5.97363 15.9857 6.87542 14.9443 7.9762C15.2933 7.96477 15.6453 7.95892 16 7.95892C24.8366 7.95892 32 11.559 32 16C32 18.146 30.3273 20.0956 27.6014 21.5375C27.4934 20.7404 27.3333 19.9172 27.1223 19.0763C29.0618 17.9007 29.6296 16.7324 29.6296 16C29.6296 15.1681 28.8971 13.7736 26.2536 12.4451C23.752 11.1879 20.1301 10.3415 16 10.3415C14.8576 10.3415 13.754 10.4062 12.7023 10.5266C12.646 10.533 12.5899 10.5395 12.534 10.5463C11.506 10.6703 10.5287 10.8475 9.61441 11.0691C10.2304 10.0731 10.8834 9.13813 11.5612 8.27242L11.5613 8.27239Z" fill="#E48B53"/>
<path d="M4.39858 10.4625C4.5066 11.2596 4.66666 12.0828 4.87763 12.9237C2.93813 14.0993 2.37037 15.2677 2.37037 16C2.37037 16.7323 2.93814 17.9007 4.8776 19.0762C4.66663 19.9172 4.5066 20.7404 4.39858 21.5375C1.67271 20.0955 1.18088e-06 18.146 0 16C0 13.854 1.6727 11.9044 4.39858 10.4625Z" fill="#E48B53"/>
</svg>
