<svg width="300" height="48" viewBox="0 0 300 48" fill="none" xmlns="http://www.w3.org/2000/svg">
<path d="M76.1818 38.4686C67.9107 38.4686 61.4688 32.3048 61.4688 23.4768C61.4688 15.0464 67.5925 8.72363 75.9432 8.72363C83.1804 8.72363 88.3499 13.0184 90.2188 19.2218H83.1009C82.226 16.3189 79.6016 14.1318 75.7841 14.1318C71.1714 14.1318 67.6721 17.5119 67.6721 23.6359C67.6721 29.1236 70.734 33.3388 76.4601 33.3388C80.6752 33.3388 83.3395 30.8335 84.1348 27.2943H75.8637V22.4827H90.5767C90.9346 31.7879 85.288 38.4686 76.1818 38.4686ZM105.96 37.8721H99.916V14.7681H90.929V9.32012H114.987V14.7681H105.96V37.8721Z" fill="white"/>
<path d="M126.883 26.458L124.189 26.9229C124.016 26.4124 123.693 25.943 123.219 25.5146C122.754 25.0863 122.057 24.8721 121.127 24.8721C120.288 24.8721 119.587 25.0635 119.021 25.4463C118.465 25.82 118.188 26.2985 118.188 26.8818C118.188 27.3923 118.374 27.807 118.748 28.126C119.131 28.445 119.737 28.7002 120.566 28.8916L123.014 29.4385C124.408 29.7575 125.452 30.2588 126.145 30.9424C126.837 31.626 127.184 32.501 127.184 33.5674C127.184 34.488 126.919 35.3083 126.391 36.0283C125.862 36.7393 125.128 37.2998 124.189 37.71C123.251 38.111 122.166 38.3115 120.936 38.3115C119.222 38.3115 117.827 37.9424 116.752 37.2041C115.676 36.4658 115.016 35.4268 114.77 34.0869L117.627 33.6494C117.809 34.3968 118.178 34.9619 118.734 35.3447C119.299 35.7275 120.029 35.9189 120.922 35.9189C121.888 35.9189 122.663 35.7139 123.246 35.3037C123.839 34.8936 124.135 34.3968 124.135 33.8135C124.135 32.8473 123.415 32.1956 121.975 31.8584L119.391 31.2842C117.96 30.9561 116.902 30.4411 116.219 29.7393C115.544 29.0283 115.207 28.1351 115.207 27.0596C115.207 26.1572 115.458 25.3643 115.959 24.6807C116.469 23.9971 117.167 23.4684 118.051 23.0947C118.944 22.7119 119.96 22.5205 121.1 22.5205C122.758 22.5205 124.057 22.8805 124.996 23.6006C125.944 24.3206 126.573 25.2731 126.883 26.458ZM138.381 31.6807V22.7119H141.335V37.9971H138.436V35.3447H138.272C137.907 36.1559 137.342 36.835 136.577 37.3818C135.811 37.9287 134.854 38.1976 133.706 38.1885C132.721 38.1885 131.851 37.9743 131.094 37.5459C130.347 37.1175 129.759 36.4749 129.331 35.6182C128.911 34.7614 128.702 33.6995 128.702 32.4326V22.7119H131.655V32.0908C131.655 33.1208 131.947 33.9456 132.53 34.5654C133.113 35.1852 133.865 35.4906 134.786 35.4814C135.342 35.4814 135.893 35.3447 136.44 35.0713C136.996 34.7979 137.456 34.3786 137.821 33.8135C138.195 33.2484 138.381 32.5374 138.381 31.6807ZM143.618 37.9971V22.7119H146.448V25.2275H146.653C146.972 24.3799 147.492 23.7191 148.212 23.2451C148.941 22.762 149.807 22.5205 150.81 22.5205C151.831 22.5205 152.683 22.762 153.366 23.2451C154.059 23.7191 154.574 24.3799 154.911 25.2275H155.075C155.44 24.3981 156.019 23.7419 156.812 23.2588C157.605 22.7666 158.548 22.5205 159.642 22.5205C161.027 22.5205 162.162 22.958 163.046 23.833C163.93 24.6989 164.372 26.0068 164.372 27.7568V37.9971H161.392V28.0303C161.392 26.9912 161.109 26.2438 160.544 25.7881C159.979 25.3232 159.304 25.0908 158.521 25.0908C157.554 25.0908 156.803 25.3916 156.265 25.9932C155.736 26.5856 155.472 27.3376 155.472 28.249V37.9971H152.491V27.8389C152.491 27.0094 152.236 26.3441 151.726 25.8428C151.215 25.3415 150.545 25.0908 149.716 25.0908C149.151 25.0908 148.627 25.2412 148.144 25.542C147.67 25.8337 147.287 26.2438 146.995 26.7725C146.713 27.292 146.571 27.8936 146.571 28.5771V37.9971H143.618ZM166.656 37.9971V22.7119H169.486V25.2275H169.691C170.01 24.3799 170.53 23.7191 171.25 23.2451C171.979 22.762 172.845 22.5205 173.847 22.5205C174.868 22.5205 175.72 22.762 176.404 23.2451C177.097 23.7191 177.612 24.3799 177.949 25.2275H178.113C178.478 24.3981 179.056 23.7419 179.849 23.2588C180.642 22.7666 181.586 22.5205 182.679 22.5205C184.065 22.5205 185.2 22.958 186.084 23.833C186.968 24.6989 187.41 26.0068 187.41 27.7568V37.9971H184.429V28.0303C184.429 26.9912 184.147 26.2438 183.582 25.7881C183.017 25.3232 182.342 25.0908 181.558 25.0908C180.592 25.0908 179.84 25.3916 179.302 25.9932C178.774 26.5856 178.509 27.3376 178.509 28.249V37.9971H175.529V27.8389C175.529 27.0094 175.274 26.3441 174.763 25.8428C174.253 25.3415 173.583 25.0908 172.754 25.0908C172.188 25.0908 171.664 25.2412 171.181 25.542C170.707 25.8337 170.325 26.2438 170.033 26.7725C169.75 27.292 169.609 27.8936 169.609 28.5771V37.9971H166.656ZM196.27 38.3115C194.775 38.3115 193.481 37.988 192.387 37.3408C191.293 36.6937 190.45 35.7822 189.858 34.6064C189.274 33.4215 188.983 32.0407 188.983 30.4639C188.983 28.8962 189.27 27.5153 189.844 26.3213C190.427 25.1273 191.243 24.1976 192.291 23.5322C193.349 22.8577 194.588 22.5205 196.01 22.5205C196.876 22.5205 197.714 22.6618 198.526 22.9443C199.337 23.2269 200.066 23.6735 200.713 24.2842C201.36 24.8949 201.871 25.6878 202.244 26.6631C202.627 27.6383 202.819 28.8141 202.819 30.1904V31.2568H190.664V29.0283H201.287L199.906 29.7666C199.906 28.8278 199.761 27.9984 199.469 27.2783C199.177 26.5583 198.74 25.9977 198.156 25.5967C197.582 25.1865 196.867 24.9814 196.01 24.9814C195.153 24.9814 194.42 25.1865 193.809 25.5967C193.207 26.0068 192.747 26.5492 192.428 27.2236C192.109 27.8981 191.949 28.6364 191.949 29.4385V30.9561C191.949 32.0042 192.132 32.8929 192.496 33.6221C192.861 34.3512 193.367 34.9072 194.014 35.29C194.67 35.6729 195.431 35.8643 196.297 35.8643C196.862 35.8643 197.373 35.7822 197.828 35.6182C198.293 35.4541 198.694 35.208 199.031 34.8799C199.369 34.5518 199.624 34.1462 199.797 33.6631L202.614 34.1963C202.386 35.0166 201.985 35.7367 201.41 36.3564C200.836 36.9762 200.112 37.4593 199.237 37.8057C198.371 38.1429 197.382 38.3115 196.27 38.3115ZM204.337 37.9971V22.7119H207.194V25.1592H207.358C207.641 24.3389 208.133 23.6917 208.835 23.2178C209.546 22.7347 210.348 22.4932 211.241 22.4932C211.423 22.4932 211.637 22.5023 211.884 22.5205C212.139 22.5296 212.344 22.5433 212.499 22.5615V25.4053C212.38 25.3688 212.166 25.3324 211.856 25.2959C211.555 25.2594 211.25 25.2412 210.94 25.2412C210.238 25.2412 209.61 25.3916 209.054 25.6924C208.507 25.984 208.074 26.3896 207.755 26.9092C207.445 27.4196 207.29 28.012 207.29 28.6865V37.9971H204.337ZM225.461 38.3115C223.993 38.3115 222.726 37.9743 221.66 37.2998C220.594 36.6253 219.773 35.6956 219.199 34.5107C218.625 33.3258 218.338 31.9678 218.338 30.4365C218.338 28.8779 218.629 27.5062 219.213 26.3213C219.805 25.1273 220.63 24.1976 221.687 23.5322C222.754 22.8577 224.003 22.5205 225.434 22.5205C226.6 22.5205 227.635 22.7347 228.537 23.1631C229.448 23.5824 230.182 24.1794 230.738 24.9541C231.303 25.7288 231.636 26.6312 231.736 27.6611H228.838C228.738 27.1781 228.542 26.736 228.25 26.335C227.967 25.9339 227.594 25.6149 227.129 25.3779C226.664 25.141 226.113 25.0225 225.475 25.0225C224.645 25.0225 223.92 25.2412 223.301 25.6787C222.69 26.1071 222.212 26.7223 221.865 27.5244C221.519 28.3265 221.346 29.2744 221.346 30.3682C221.346 31.471 221.514 32.4326 221.851 33.2529C222.189 34.0732 222.667 34.7067 223.287 35.1533C223.916 35.5908 224.645 35.8096 225.475 35.8096C226.331 35.8096 227.06 35.5726 227.662 35.0986C228.273 34.6247 228.665 33.9775 228.838 33.1572H231.736C231.636 34.1507 231.317 35.0348 230.779 35.8096C230.241 36.5843 229.521 37.195 228.619 37.6416C227.717 38.0882 226.664 38.3115 225.461 38.3115ZM237.711 38.3252C236.745 38.3252 235.87 38.1475 235.086 37.792C234.303 37.4274 233.683 36.8988 233.227 36.2061C232.771 35.5133 232.543 34.6702 232.543 33.6768C232.543 32.8109 232.707 32.1045 233.036 31.5576C233.373 31.0016 233.824 30.5596 234.389 30.2314C234.954 29.9033 235.583 29.6572 236.276 29.4932C236.969 29.3291 237.68 29.2015 238.409 29.1104C239.329 29.0101 240.072 28.9235 240.637 28.8506C241.202 28.7777 241.612 28.6637 241.868 28.5088C242.132 28.3447 242.264 28.085 242.264 27.7295V27.6611C242.264 26.7952 242.018 26.1253 241.526 25.6514C241.043 25.1774 240.323 24.9404 239.366 24.9404C238.372 24.9404 237.584 25.1592 237 25.5967C236.426 26.0251 236.03 26.5127 235.811 27.0596L233.008 26.417C233.346 25.4873 233.833 24.7399 234.471 24.1748C235.118 23.6006 235.857 23.1813 236.686 22.917C237.525 22.6527 238.4 22.5205 239.311 22.5205C239.922 22.5205 240.569 22.5934 241.252 22.7393C241.936 22.876 242.579 23.1357 243.18 23.5186C243.791 23.8923 244.288 24.43 244.67 25.1318C245.053 25.8337 245.245 26.7406 245.245 27.8525V37.9971H242.332V35.9053H242.223C242.041 36.279 241.754 36.6527 241.362 37.0264C240.979 37.4001 240.487 37.71 239.885 37.9561C239.284 38.2021 238.559 38.3252 237.711 38.3252ZM238.354 35.9463C239.183 35.9463 239.89 35.7868 240.473 35.4678C241.056 35.1396 241.503 34.7113 241.813 34.1826C242.123 33.654 242.278 33.0934 242.278 32.501V30.5186C242.168 30.6188 241.963 30.7145 241.663 30.8057C241.362 30.8968 241.02 30.9743 240.637 31.0381C240.254 31.1019 239.881 31.1611 239.516 31.2158C239.152 31.2614 238.846 31.2979 238.6 31.3252C238.026 31.4072 237.502 31.5348 237.028 31.708C236.554 31.8721 236.171 32.1182 235.879 32.4463C235.597 32.7653 235.456 33.1891 235.456 33.7178C235.456 34.4561 235.729 35.012 236.276 35.3857C236.823 35.7594 237.515 35.9463 238.354 35.9463ZM247.542 37.9971V22.7119H250.372V25.2275H250.577C250.896 24.3799 251.416 23.7191 252.136 23.2451C252.865 22.762 253.731 22.5205 254.733 22.5205C255.754 22.5205 256.606 22.762 257.29 23.2451C257.983 23.7191 258.498 24.3799 258.835 25.2275H258.999C259.364 24.3981 259.942 23.7419 260.735 23.2588C261.528 22.7666 262.472 22.5205 263.565 22.5205C264.951 22.5205 266.086 22.958 266.97 23.833C267.854 24.6989 268.296 26.0068 268.296 27.7568V37.9971H265.315V28.0303C265.315 26.9912 265.033 26.2438 264.468 25.7881C263.903 25.3232 263.228 25.0908 262.444 25.0908C261.478 25.0908 260.726 25.3916 260.189 25.9932C259.66 26.5856 259.396 27.3376 259.396 28.249V37.9971H256.415V27.8389C256.415 27.0094 256.16 26.3441 255.649 25.8428C255.139 25.3415 254.469 25.0908 253.64 25.0908C253.075 25.0908 252.551 25.2412 252.067 25.542C251.593 25.8337 251.211 26.2438 250.919 26.7725C250.636 27.292 250.495 27.8936 250.495 28.5771V37.9971H247.542ZM270.58 43.7119V22.7119H273.451V25.2002H273.697C273.879 24.8812 274.13 24.512 274.449 24.0928C274.777 23.6735 275.233 23.3089 275.816 22.999C276.399 22.68 277.16 22.5205 278.099 22.5205C279.33 22.5205 280.423 22.8304 281.38 23.4502C282.347 24.07 283.108 24.9678 283.664 26.1436C284.22 27.3193 284.498 28.7367 284.498 30.3955C284.498 32.0361 284.224 33.4489 283.677 34.6338C283.13 35.8096 282.374 36.7165 281.408 37.3545C280.451 37.9834 279.352 38.2979 278.113 38.2979C277.192 38.2979 276.436 38.1429 275.843 37.833C275.26 37.514 274.8 37.1449 274.462 36.7256C274.134 36.3063 273.879 35.9372 273.697 35.6182H273.533V43.7119H270.58ZM277.47 35.7686C278.354 35.7686 279.093 35.5316 279.685 35.0576C280.278 34.5837 280.724 33.9411 281.025 33.1299C281.335 32.3096 281.49 31.389 281.49 30.3682C281.49 29.3564 281.339 28.4495 281.039 27.6475C280.738 26.8454 280.291 26.2119 279.699 25.7471C279.106 25.2822 278.364 25.0498 277.47 25.0498C276.604 25.0498 275.875 25.2731 275.283 25.7197C274.69 26.1572 274.239 26.777 273.929 27.5791C273.629 28.3721 273.478 29.3018 273.478 30.3682C273.478 31.4346 273.633 32.3734 273.943 33.1846C274.253 33.9958 274.704 34.6292 275.296 35.085C275.898 35.5407 276.623 35.7686 277.47 35.7686ZM297.527 26.458L294.834 26.9229C294.661 26.4124 294.337 25.943 293.863 25.5146C293.399 25.0863 292.701 24.8721 291.772 24.8721C290.933 24.8721 290.231 25.0635 289.666 25.4463C289.11 25.82 288.832 26.2985 288.832 26.8818C288.832 27.3923 289.019 27.807 289.393 28.126C289.776 28.445 290.382 28.7002 291.211 28.8916L293.658 29.4385C295.053 29.7575 296.097 30.2588 296.789 30.9424C297.482 31.626 297.828 32.501 297.828 33.5674C297.828 34.488 297.564 35.3083 297.035 36.0283C296.507 36.7393 295.773 37.2998 294.834 37.71C293.895 38.111 292.811 38.3115 291.58 38.3115C289.867 38.3115 288.472 37.9424 287.397 37.2041C286.321 36.4658 285.66 35.4268 285.414 34.0869L288.272 33.6494C288.454 34.3968 288.823 34.9619 289.379 35.3447C289.944 35.7275 290.673 35.9189 291.567 35.9189C292.533 35.9189 293.307 35.7139 293.891 35.3037C294.483 34.8936 294.779 34.3968 294.779 33.8135C294.779 32.8473 294.059 32.1956 292.619 31.8584L290.035 31.2842C288.604 30.9561 287.547 30.4411 286.863 29.7393C286.189 29.0283 285.852 28.1351 285.852 27.0596C285.852 26.1572 286.102 25.3643 286.604 24.6807C287.114 23.9971 287.811 23.4684 288.695 23.0947C289.589 22.7119 290.605 22.5205 291.744 22.5205C293.403 22.5205 294.702 22.8805 295.641 23.6006C296.589 24.3206 297.218 25.2731 297.527 26.458Z" fill="#E48B53"/>
<path d="M15.2485 0.186265C17.6616 -0.38068 20.6456 0.393725 23.7945 2.39485C22.8678 3.11806 21.9463 3.92522 21.0398 4.81235C18.7363 3.53805 17.0232 3.3477 16.008 3.59667C15.0981 3.81983 14.0408 4.58909 13.5339 7.02315C13.0073 9.55149 13.2855 13.2218 14.6589 17.5245C16.0164 21.7776 18.283 26.1358 21.1004 29.877C23.9345 33.6403 27.033 36.3925 29.8075 37.8598C32.6432 39.3594 34.3763 39.1614 35.2111 38.7077C36.0137 38.2715 37.0737 36.999 37.2825 33.8983C37.4527 31.3711 36.9882 28.1797 35.8346 24.683H23.6534C22.9591 23.5423 22.3499 22.3727 21.7676 21.1827H38.241L38.3328 21.3885C40.1432 25.9923 40.9898 30.466 40.7427 34.1349C40.4936 37.833 39.1472 40.5087 36.9104 41.7546L36.8574 41.7838C34.6067 43.0072 31.5919 42.7297 28.2743 40.9957L28.1959 40.9545C24.8998 39.2113 21.4905 36.1306 18.4808 32.1786L18.3378 31.9898C15.2933 27.947 12.8396 23.2385 11.3574 18.5947C9.87512 13.9508 9.44712 9.63104 10.1397 6.30535C10.8323 2.97966 12.6067 0.833853 15.1879 0.200813L15.2485 0.186265Z" fill="#E48B53"/>
<path d="M5.43307 4.6848C4.81801 4.654 4.21115 4.96718 3.89464 5.51244C3.5798 6.05771 3.60096 6.73281 3.9466 7.25858C5.13451 9.05656 5.49478 11.2814 4.9381 13.3619C4.37987 15.4422 2.84432 17.1867 0.918049 18.1507C0.355388 18.4331 0 19.0075 0 19.6372C0 20.2668 0.355388 20.8412 0.918492 21.1236C2.84477 22.0875 4.38031 23.832 4.93854 25.9125C5.49511 27.9928 5.13485 30.2177 3.94705 32.0158C3.60141 32.5415 3.58025 33.2166 3.89509 33.7619C4.20993 34.3055 4.79574 34.6042 5.43352 34.5895C7.57072 34.4662 9.69174 35.2581 11.2139 36.7836C12.7377 38.3057 13.5378 40.4137 13.4079 42.5639C13.3706 43.1919 13.6903 43.7875 14.2356 44.1023C14.7776 44.4139 15.4526 44.3944 15.9817 44.0504C17.783 42.8641 20.0111 42.5022 22.085 43.0589C24.1654 43.6171 25.9099 45.1526 26.8739 47.0789C27.1561 47.6418 27.7305 47.9972 28.3601 47.9972C28.9898 47.9972 29.5642 47.6418 29.8466 47.0787C30.8105 45.1524 32.555 43.6169 34.6355 43.0586C36.7126 42.4972 39.2679 39.8133 39.2679 38.1771C31.6325 43.0586 21.9887 33.2616 20.7247 31.6325C16.3138 25.9473 14.7255 20.7247 13.0893 14.1801C8.95328 9.25364 14.5871 1.31605 16.3616 0C12.5439 0 8.68965 4.86511 5.43307 4.6848Z" fill="#E48B53"/>
<path d="M18.6831 9.93444C24.834 2.11758 32.3648 -1.8498 37.0232 0.839735C39.7494 2.41372 40.993 5.97954 40.8152 10.5178C39.7229 10.0711 38.5592 9.67164 37.3353 9.32423C37.2718 5.98555 36.2061 4.40363 35.2757 3.86647C34.219 3.25633 31.9073 3.16892 28.2709 5.56992C26.7677 6.56239 25.2065 7.88523 23.6711 9.49996C24.1857 9.4832 24.7047 9.47462 25.2277 9.47462C38.2566 9.47462 48.8187 14.7556 48.8187 21.2701C48.8187 24.418 46.3524 27.2779 42.3332 29.3931C42.1739 28.2238 41.9379 27.0163 41.6268 25.7827C44.4866 24.0583 45.3237 22.3444 45.3237 21.2701C45.3237 20.0498 44.2436 18.0042 40.346 16.0554C36.6575 14.2112 31.3172 12.9696 25.2277 12.9696C23.5432 12.9696 21.9161 13.0646 20.3654 13.2411C20.2825 13.2505 20.1998 13.2601 20.1173 13.2701C18.6015 13.452 17.1606 13.7119 15.8126 14.037C16.7208 12.5759 17.6838 11.2044 18.6831 9.93444Z" fill="#E48B53"/>
</svg>
