<svg width="208" height="48" viewBox="0 0 208 48" fill="none" xmlns="http://www.w3.org/2000/svg">
<path d="M135.38 27.4088L131.954 27.7662C131.811 27.242 131.5 26.7797 131.022 26.3795C130.544 25.9697 129.871 25.7647 129.001 25.7647C128.217 25.7647 127.558 25.9363 127.023 26.2794C126.497 26.6225 126.234 27.0609 126.234 27.5946C126.234 28.0616 126.406 28.4476 126.75 28.7526C127.104 29.0481 127.687 29.2863 128.499 29.4674L131.237 30.0393C132.738 30.3537 133.861 30.8684 134.606 31.5832C135.352 32.298 135.724 33.2225 135.724 34.3566C135.724 35.3574 135.433 36.2437 134.85 37.0157C134.267 37.7877 133.459 38.3881 132.427 38.817C131.404 39.2459 130.224 39.4603 128.886 39.4603C126.927 39.4603 125.35 39.0505 124.156 38.2309C122.97 37.4017 122.258 36.2532 122.02 34.7855L125.704 34.4424C125.866 35.1572 126.22 35.7004 126.765 36.0721C127.319 36.4343 128.026 36.6154 128.886 36.6154C129.785 36.6154 130.506 36.4343 131.051 36.0721C131.596 35.7004 131.868 35.2477 131.868 34.7141C131.868 33.8181 131.151 33.2082 129.718 32.8842L126.98 32.3123C125.441 31.9787 124.304 31.4402 123.568 30.6969C122.832 29.9439 122.464 28.9861 122.464 27.8233C122.464 26.8321 122.736 25.9744 123.281 25.2501C123.826 24.5257 124.586 23.9634 125.56 23.5631C126.535 23.1628 127.663 22.9627 128.944 22.9627C130.826 22.9627 132.303 23.3678 133.373 24.1779C134.453 24.9784 135.122 26.0554 135.38 27.4088ZM144.741 39.4603C143.145 39.4603 141.774 39.1125 140.627 38.4167C139.48 37.7114 138.601 36.7393 137.989 35.5003C137.378 34.2613 137.072 32.8365 137.072 31.2258C137.072 29.5961 137.382 28.1617 138.004 26.9227C138.625 25.6837 139.509 24.7164 140.656 24.0206C141.802 23.3153 143.155 22.9627 144.713 22.9627C146.022 22.9627 147.178 23.201 148.182 23.6775C149.185 24.154 149.983 24.826 150.576 25.6933C151.178 26.551 151.522 27.5565 151.608 28.7097H147.995C147.9 28.195 147.713 27.7328 147.436 27.323C147.159 26.9132 146.796 26.5891 146.347 26.3509C145.907 26.1126 145.381 25.9935 144.77 25.9935C143.996 25.9935 143.317 26.2032 142.734 26.6225C142.161 27.0323 141.712 27.6232 141.387 28.3952C141.062 29.1672 140.899 30.0917 140.899 31.1686C140.899 32.2551 141.057 33.1939 141.372 33.985C141.688 34.7665 142.137 35.3717 142.72 35.8005C143.303 36.2199 143.986 36.4295 144.77 36.4295C145.601 36.4295 146.304 36.1865 146.877 35.7004C147.46 35.2144 147.833 34.5425 147.995 33.6847H151.608C151.522 34.8189 151.187 35.8196 150.604 36.6869C150.021 37.5542 149.233 38.2357 148.239 38.7313C147.245 39.2173 146.079 39.4603 144.741 39.4603ZM157.414 29.7962V39.1458H153.643V17.8447H157.328V25.8934H157.528C157.901 24.988 158.479 24.2732 159.263 23.749C160.047 23.2248 161.055 22.9627 162.288 22.9627C163.396 22.9627 164.362 23.1962 165.184 23.6632C166.015 24.1302 166.66 24.8117 167.119 25.7076C167.578 26.6034 167.807 27.6947 167.807 28.9813V39.1458H164.022V29.5675C164.022 28.4809 163.745 27.6423 163.191 27.0514C162.637 26.4509 161.863 26.1508 160.869 26.1508C160.2 26.1508 159.602 26.2937 159.077 26.5796C158.561 26.8655 158.154 27.2801 157.858 27.8233C157.562 28.3571 157.414 29.0147 157.414 29.7962ZM177.569 39.4603C176.002 39.4603 174.645 39.1172 173.498 38.431C172.351 37.7448 171.462 36.7822 170.832 35.5432C170.211 34.3042 169.9 32.8651 169.9 31.2258C169.9 29.577 170.211 28.1331 170.832 26.8941C171.462 25.6456 172.351 24.6782 173.498 23.992C174.645 23.3058 176.002 22.9627 177.569 22.9627C179.137 22.9627 180.494 23.3058 181.641 23.992C182.787 24.6782 183.676 25.6456 184.307 26.8941C184.938 28.1331 185.253 29.577 185.253 31.2258C185.253 32.8651 184.938 34.3042 184.307 35.5432C183.676 36.7822 182.787 37.7448 181.641 38.431C180.494 39.1172 179.137 39.4603 177.569 39.4603ZM177.569 36.4295C178.439 36.4295 179.156 36.2008 179.72 35.7433C180.284 35.2764 180.704 34.6473 180.981 33.8563C181.268 33.0653 181.411 32.1884 181.411 31.2258C181.411 30.2441 181.268 29.3578 180.981 28.5667C180.704 27.7757 180.284 27.1514 179.72 26.6939C179.156 26.2269 178.439 25.9935 177.569 25.9935C176.719 25.9935 176.007 26.2269 175.433 26.6939C174.86 27.1514 174.43 27.7757 174.143 28.5667C173.866 29.3578 173.727 30.2441 173.727 31.2258C173.727 32.1884 173.866 33.0653 174.143 33.8563C174.43 34.6473 174.86 35.2764 175.433 35.7433C176.007 36.2008 176.719 36.4295 177.569 36.4295ZM194.313 39.4603C192.746 39.4603 191.389 39.1172 190.242 38.431C189.095 37.7448 188.206 36.7822 187.575 35.5432C186.954 34.3042 186.644 32.8651 186.644 31.2258C186.644 29.577 186.954 28.1331 187.575 26.8941C188.206 25.6456 189.095 24.6782 190.242 23.992C191.389 23.3058 192.746 22.9627 194.313 22.9627C195.881 22.9627 197.237 23.3058 198.384 23.992C199.531 24.6782 200.42 25.6456 201.051 26.8941C201.681 28.1331 201.997 29.577 201.997 31.2258C201.997 32.8651 201.681 34.3042 201.051 35.5432C200.42 36.7822 199.531 37.7448 198.384 38.431C197.237 39.1172 195.881 39.4603 194.313 39.4603ZM194.313 36.4295C195.183 36.4295 195.9 36.2008 196.464 35.7433C197.027 35.2764 197.448 34.6473 197.725 33.8563C198.012 33.0653 198.155 32.1884 198.155 31.2258C198.155 30.2441 198.012 29.3578 197.725 28.5667C197.448 27.7757 197.027 27.1514 196.464 26.6939C195.9 26.2269 195.183 25.9935 194.313 25.9935C193.463 25.9935 192.751 26.2269 192.177 26.6939C191.604 27.1514 191.174 27.7757 190.887 28.5667C190.61 29.3578 190.471 30.2441 190.471 31.2258C190.471 32.1884 190.61 33.0653 190.887 33.8563C191.174 34.6473 191.604 35.2764 192.177 35.7433C192.751 36.2008 193.463 36.4295 194.313 36.4295ZM207.846 17.8447V39.1458H204.076V17.8447H207.846Z" fill="white"/>
<path d="M80.8553 39.7782C72.0804 39.7782 65.2461 33.2393 65.2461 23.8739C65.2461 14.9303 71.7429 8.22266 80.6022 8.22266C88.2802 8.22266 93.7645 12.7788 95.7473 19.3599H88.1958C87.2677 16.2803 84.4834 13.96 80.4334 13.96C75.5397 13.96 71.8273 17.5459 71.8273 24.0426C71.8273 29.8644 75.0757 34.3361 81.1506 34.3361C85.6224 34.3361 88.449 31.6784 89.2927 27.9238H80.5178V22.8192H96.127C96.5067 32.6909 90.5161 39.7782 80.8553 39.7782ZM112.448 39.1454H106.035V14.635H96.5007V8.85546H122.024V14.635H112.448V39.1454Z" fill="#E48B53"/>
<path d="M10.8613 26.7128C11.6595 28.4887 12.5556 30.2203 13.5382 31.9011C13.2495 33.285 13.0693 34.6027 12.9956 35.8313C12.7009 40.7394 14.0907 42.9489 15.2832 43.6373C16.3332 44.2434 18.4805 44.3923 21.7793 42.5708C22.8094 43.5707 23.8564 44.4825 24.9093 45.2978C20.5743 48.0319 16.3877 48.8285 13.3112 47.0525C8.5142 44.2833 7.78484 36.0499 10.8613 26.7128Z" fill="#E48B53"/>
<path d="M15.1907 0.210171C17.9349 -0.429538 21.3285 0.444258 24.9095 2.70221C23.8557 3.51825 22.8077 4.429 21.7768 5.42999C19.1572 3.99214 17.2089 3.77735 16.0544 4.05828C15.0196 4.31009 13.8172 5.17808 13.2407 7.92453C12.642 10.7774 12.9583 14.9187 14.5201 19.7737C16.064 24.5726 18.6416 29.4901 21.8457 33.7115C25.0687 37.9579 28.5925 41.0633 31.7478 42.7189C34.9727 44.411 36.9437 44.1875 37.893 43.6756C38.8057 43.1834 40.0112 41.7476 40.2487 38.2489C40.4423 35.3974 39.914 31.7964 38.602 27.8509H24.7491C23.9595 26.5638 23.2667 25.2441 22.6045 23.9014H41.3388L41.4431 24.1335C43.502 29.3283 44.4647 34.3761 44.1837 38.516C43.9005 42.6887 42.3693 45.7078 39.8256 47.1136L39.7653 47.1465C37.2056 48.5269 33.777 48.2139 30.0042 46.2573L29.915 46.2107C26.1665 44.2439 22.2894 40.7678 18.8666 36.3085L18.7039 36.0955C15.2416 31.5338 12.4512 26.2211 10.7655 20.9812C9.07986 15.7413 8.59312 10.8671 9.38073 7.1146C10.1684 3.36208 12.1864 0.940874 15.1218 0.226586L15.1907 0.210171Z" fill="#E48B53"/>
<path d="M19.2368 11.2095C26.1782 2.38935 34.6767 -2.08721 39.9337 0.94751C43.0102 2.72351 44.4136 6.74698 44.213 11.8677C42.9803 11.3637 41.667 10.9129 40.2859 10.5209C40.2142 6.75376 39.0116 4.96881 37.9617 4.36271C36.7691 3.67426 34.1604 3.57563 30.0566 6.28479C28.3603 7.40463 26.5986 8.89725 24.8659 10.7192C25.4465 10.7003 26.0322 10.6906 26.6224 10.6906C41.3256 10.6906 53.2449 16.6494 53.2449 24C53.2449 27.552 50.4616 30.7789 45.926 33.1656C45.7463 31.8462 45.4799 30.4837 45.1289 29.0918C48.3561 27.146 49.3008 25.2122 49.3008 24C49.3008 22.6231 48.0819 20.315 43.6835 18.1161C39.521 16.0351 33.4945 14.6341 26.6224 14.6341C24.7215 14.6341 22.8853 14.7414 21.1354 14.9405C21.0418 14.9511 20.9484 14.962 20.8553 14.9732C19.1448 15.1785 17.5187 15.4718 15.9974 15.8386C17.0224 14.19 18.109 12.6424 19.2367 11.2095L19.2368 11.2095Z" fill="#E48B53"/>
<path d="M7.31881 14.8344C7.49854 16.1538 7.76486 17.5163 8.1159 18.9082C4.88876 20.854 3.94406 22.7878 3.94406 24C3.94407 25.2122 4.88878 27.146 8.11586 29.0917C7.76482 30.4836 7.49853 31.8461 7.31881 33.1655C2.78323 30.7788 1.96487e-06 27.5519 0 24C0 20.448 2.78321 17.2211 7.31881 14.8344Z" fill="#E48B53"/>
</svg>
